<?xml version="1.0" standalone="no"?><!DOCTYPE svg PUBLIC "-//W3C//DTD SVG 1.1//EN" "http://www.w3.org/Graphics/SVG/1.1/DTD/svg11.dtd"><svg class="icon" width="200px" height="200.00px" viewBox="0 0 1024 1024" version="1.1" xmlns="http://www.w3.org/2000/svg"><path d="M752 962.7H272c-91 0-165-74-165-165v-300c0-24.9 20.2-45 45-45s45 20.1 45 45v300c0 41.4 33.6 75 75 75h480c41.4 0 75-33.6 75-75v-300c0-24.9 20.2-45 45-45s45 20.1 45 45v300c0 90.9-74 165-165 165z" fill="#2081F6" /><path d="M962 452.7c-9.3 0-18.6-2.8-26.6-8.7l-379-278c-26.5-19.4-62.2-19.4-88.7 0l-379 278c-20 14.7-48.2 10.4-62.9-9.7-14.7-20-10.3-48.2 9.7-62.9l379-278c58.4-42.8 136.8-42.8 195.1 0l379 278c20 14.7 24.4 42.9 9.7 62.9-8.8 12-22.5 18.4-36.3 18.4z" fill="#4C4F54" /></svg>